<?xml version="1.0" standalone="no"?><!DOCTYPE svg PUBLIC "-//W3C//DTD SVG 1.1//EN" "http://www.w3.org/Graphics/SVG/1.1/DTD/svg11.dtd"><svg t="1758867247432" class="icon" viewBox="0 0 1024 1024" version="1.1" xmlns="http://www.w3.org/2000/svg" p-id="1604" xmlns:xlink="http://www.w3.org/1999/xlink" width="200" height="200"><path d="M340.109125 578.287865s40.760113-35.522107 147.266228-35.522108V95.729069S338.965193 72.489182 288.030103 234.746943c-46.299153 147.446849 52.079022 343.540922 52.079022 343.540922z" fill="#3C270F" p-id="1605"></path><path d="M630.607714 579.612418s-40.760113-35.522107-147.206021-35.522108V97.053622s148.349953-23.239887 199.285043 139.017874c46.299153 147.446849-52.079022 343.540922-52.079022 343.540922z" fill="#2C160A" p-id="1606"></path><path d="M183.08937 950.667921h597.493885s-14.208843-131.612418-46.118533-219.333961c-34.016933-69.599247-252.568203-113.309501-252.568203-113.309501s-218.611477 43.710254-252.568203 113.309501c-25.16651 96.571966-46.238946 219.33396-46.238946 219.333961" fill="#F4CD9A" p-id="1607"></path><path d="M481.896519 618.024459s218.611477 43.710254 252.568203 113.309501c31.969897 87.721543 46.118532 219.33396 46.118533 219.333961H481.896519v-332.643462z" fill="#EBBC89" p-id="1608"></path><path d="M422.351834 476.5381h119.029163v215.420508H422.351834z" fill="#F4CD9A" p-id="1609"></path><path d="M481.896519 476.5381h59.484478v215.420508h-59.484478z" fill="#EBBC89" p-id="1610"></path><path d="M422.351834 576.361242c10.716839 33.234243 53.88523 52.259643 85.6143 52.259642 11.49953 0 22.637817-2.107244 33.414863-5.900282V476.5381H422.351834v99.823142z" fill="#D8A98B" p-id="1611"></path><path d="M634.882408 340.590781c0-134.562559-68.515522-211.085607-152.985889-211.085607-84.530574 0-153.046096 76.523048-153.046096 211.085607 0 134.562559 68.515522 243.657573 153.046096 243.657573 84.470367 0 152.985889-109.095014 152.985889-243.657573z" fill="#FADDA9" p-id="1612"></path><path d="M611.582314 433.911571c-27.755409-3.37159-46.479774-37.689558-41.783631-76.703669 4.635936-39.014111 30.886171-67.973659 58.64158-64.662276 27.695202 3.311383 46.419567 37.689558 41.723425 76.703668-4.575729 39.014111-30.825964 67.913452-58.581374 64.662277z" fill="#F2C795" p-id="1613"></path><path d="M294.592662 369.189087c-4.696143-39.014111 14.028222-73.392286 41.723425-76.703668 27.755409-3.311383 54.005644 25.648166 58.701787 64.662276 4.696143 39.014111-14.028222 73.332079-41.783631 76.703669-27.755409 3.311383-54.005644-25.587959-58.641581-64.662277z" fill="#FADDA9" p-id="1614"></path><path d="M634.882408 340.590781c0-134.562559-68.515522-211.085607-152.985889-211.085607v454.682973c84.470367 0.060207 152.985889-109.034807 152.985889-243.597366z" fill="#F2C795" p-id="1615"></path><path d="M296.097836 950.667921h370.754469v-217.226717H296.097836z" fill="#FFFFFF" p-id="1616"></path><path d="M183.08937 950.667921h262.863593l-34.558796-315.24365c-77.365945 13.125118-164.967074 60.809031-182.126058 95.909689-25.106303 96.571966-46.178739 219.33396-46.178739 219.333961" fill="#01445A" p-id="1617"></path><path d="M532.530574 950.667921h248.112888s-14.208843-131.612418-46.118533-219.333961c-27.875823-53.764817-138.174976-82.844779-176.587017-95.066792L532.530574 950.667921zM346.310442 653.305738l7.285042 94.103481h40.699906l-21.614299 48.888053 55.932267 154.310442h17.339605l-34.558796-315.24365c0 0.060207-46.660395 10.957667-65.083725 17.941674z" fill="#05243E" p-id="1618"></path><path d="M622.720602 653.727187l-7.52587 93.742239h-40.699906l21.614299 48.888053-55.932267 154.310442h-17.339605l34.558796-315.24365c0.060207 0 46.96143 11.318909 65.324553 18.302916z" fill="#01445A" p-id="1619"></path><path d="M335.473189 350.043274c2.889934-7.224835 9.211665-13.185325 16.195673-14.449671 33.655691-5.779868 67.612418-5.53904 101.268109 0.662277 6.682973 1.324553 12.824083 6.923801 15.834431 13.787394h6.201317c-3.431797-10.174976-11.860771-19.0254-21.79492-21.132644-16.857949-3.311383-34.016933-5.057385-50.93509-5.177798-16.918156-0.120414-34.07714 1.38476-50.935089 4.455315-8.248354 1.505174-26.069614 15.533396-26.069614 15.473189-1.806209 0.301035-3.311383 2.287865-3.311383 4.515522v1.866416h13.546566z" fill="#0C2F3E" p-id="1620"></path><path d="M465.098777 398.750706c-2.829727 10.29539-12.703669 19.386642-20.650988 19.928504-28.116651 1.444967-56.233302 1.444967-84.349953-0.060207-7.887112-0.541863-17.761054-9.693321-20.650987-20.109125-3.190969-12.462841-5.057385-24.805268-5.599248-37.268109-0.481656-10.355597 8.12794-20.891816 17.821261-22.577611 33.655691-5.599247 67.612418-5.35842 101.268109 0.662277 9.633114 1.866416 18.242709 12.342427 17.761053 22.57761-0.60207 12.342427-2.408278 24.504233-5.599247 36.846661z" fill="#FFFFFF" p-id="1621"></path><path d="M453.177799 332.222013c-16.857949-3.190969-34.016933-4.876764-50.93509-4.997178-16.918156-0.120414-34.07714 1.324553-50.935089 4.274695-8.248354 1.505174-26.069614 14.991533-26.069614 14.991533-1.806209 0.301035-3.311383 2.227658-3.311383 4.334901v24.444027c0 2.107244 1.625588 2.829727 3.311383 3.492003 2.167451 0.842897 4.997178 5.478833 5.53904 8.428975 0.842897 4.515522 1.806209 9.091251 3.010348 13.66698 3.492004 12.643462 15.352775 24.203198 26.009408 24.985889 14.088429 0.842897 28.357479 1.264346 42.445907 1.264346s28.357479-0.421449 42.506115-1.264346c10.596425-0.78269 22.457197-12.222013 25.9492-24.805268 3.311383-12.703669 5.238006-25.407338 5.779869-38.0508 0.662277-13.546566-9.994356-28.056444-23.300094-30.765757z m11.920978 66.528693c-2.829727 10.29539-12.703669 19.386642-20.650988 19.928504-28.116651 1.444967-56.233302 1.444967-84.349953-0.060207-7.887112-0.541863-17.761054-9.693321-20.650987-20.109125-3.190969-12.462841-5.057385-24.805268-5.599248-37.268109-0.481656-10.355597 8.12794-20.891816 17.821261-22.577611 33.655691-5.599247 67.612418-5.35842 101.268109 0.662277 9.633114 1.866416 18.242709 12.342427 17.761053 22.57761-0.60207 12.342427-2.408278 24.504233-5.599247 36.846661z" fill="#0C2F3E" p-id="1622"></path><path d="M344.684854 408.684854c-2.348071-3.010348-4.214487-6.502352-5.238005-10.174976-3.190969-12.462841-5.057385-24.805268-5.599248-37.268109-0.481656-10.355597 8.12794-20.891816 17.821261-22.577611 33.655691-5.599247 67.612418-5.35842 101.268109 0.662277 4.515522 0.842897 8.850423 3.672625 12.041392 7.465663-3.311383-5.057385-8.489182-9.031044-14.028222-10.054563-33.595484-6.020696-67.612418-6.080903-101.207902-0.240828-9.693321 1.806209-18.242709 12.28222-17.761054 22.637818 0.541863 12.402634 2.408278 24.684854 5.599248 37.087488 1.143932 4.635936 3.793039 8.970837 7.104421 12.462841z" fill="#2C566E" p-id="1623"></path><path d="M634.761994 350.043274c-2.889934-7.224835-9.211665-13.185325-16.195672-14.449671-33.655691-5.779868-67.612418-5.53904-101.207902 0.662277-6.682973 1.324553-12.824083 6.923801-15.834431 13.787394h-6.201317c3.431797-10.174976 11.860771-19.0254 21.79492-21.132644 16.857949-3.311383 34.016933-5.057385 50.874882-5.177798 16.918156-0.120414 34.07714 1.38476 50.995296 4.455315 8.248354 1.505174 26.069614 15.533396 26.069615 15.473189 1.806209 0.301035 3.311383 2.287865 3.251176 4.515522v1.866416h-13.546567z" fill="#0C2F3E" p-id="1624"></path><path d="M505.136406 398.750706c2.829727 10.29539 12.703669 19.386642 20.650988 19.928504 28.116651 1.444967 56.233302 1.444967 84.349953-0.060207 7.947319-0.541863 17.821261-9.693321 20.650988-20.109125 3.190969-12.462841 5.057385-24.805268 5.599247-37.268109 0.481656-10.355597-8.12794-20.891816-17.761053-22.577611-33.655691-5.599247-67.612418-5.35842-101.207902 0.662277-9.693321 1.866416-18.242709 12.342427-17.761054 22.57761 0.481656 12.342427 2.287865 24.504233 5.478833 36.846661z" fill="#FFFFFF" p-id="1625"></path><path d="M517.057385 332.222013c16.857949-3.190969 34.016933-4.876764 50.874882-4.997178 16.918156-0.120414 34.07714 1.324553 50.995296 4.274695 8.248354 1.505174 26.069614 14.991533 26.069615 14.991533 1.806209 0.301035 3.311383 2.227658 3.251176 4.334901v24.444027c0 2.107244-1.625588 2.829727-3.311383 3.492003-2.167451 0.842897-4.997178 5.478833-5.539041 8.428975-0.842897 4.515522-1.866416 9.091251-3.010348 13.66698-3.492004 12.643462-15.352775 24.203198-26.009407 24.985889-14.088429 0.842897-28.357479 1.264346-42.445908 1.264346s-28.357479-0.421449-42.506115-1.264346c-10.596425-0.78269-22.457197-12.222013-26.009407-24.805268-3.311383-12.703669-5.238006-25.407338-5.779868-38.0508-0.541863-13.546566 10.11477-28.056444 23.420508-30.765757zM505.136406 398.750706c2.829727 10.29539 12.703669 19.386642 20.650988 19.928504 28.116651 1.444967 56.233302 1.444967 84.349953-0.060207 7.947319-0.541863 17.821261-9.693321 20.650988-20.109125 3.190969-12.462841 5.057385-24.805268 5.599247-37.268109 0.481656-10.355597-8.12794-20.891816-17.761053-22.577611-33.655691-5.599247-67.612418-5.35842-101.207902 0.662277-9.693321 1.866416-18.242709 12.342427-17.761054 22.57761 0.481656 12.342427 2.287865 24.504233 5.478833 36.846661z" fill="#0C2F3E" p-id="1626"></path><path d="M625.550329 408.684854c2.348071-3.010348 4.214487-6.502352 5.238006-10.174976 3.190969-12.462841 5.057385-24.805268 5.599247-37.268109 0.481656-10.355597-8.12794-20.891816-17.761053-22.577611-33.655691-5.599247-67.612418-5.35842-101.207902 0.662277-4.575729 0.842897-8.850423 3.672625-12.1016 7.465663 3.311383-5.057385 8.489182-9.031044 14.028222-10.054563 33.655691-6.020696 67.612418-6.080903 101.268109-0.240828 9.693321 1.806209 18.242709 12.28222 17.761054 22.637818-0.541863 12.402634-2.408278 24.684854-5.599247 37.087488-1.264346 4.635936-3.913452 8.970837-7.224836 12.462841z" fill="#2C566E" p-id="1627"></path><path d="M487.43556 344.504233c-6.020696 0.301035-12.041392-0.722484-18.122296-3.251176 5.599247 8.730009 7.826905 24.142992 6.080903 32.873001 1.565381-8.248354 7.044214-10.29539 11.981186-9.091251v-20.530574z" fill="#0C2F3E" p-id="1628"></path><path d="M482.619003 344.504233c6.020696 0.301035 12.041392-0.722484 18.062088-3.251176-5.599247 8.730009-7.826905 24.142992-6.080903 32.873001-1.565381-8.248354-6.984008-10.29539-11.981185-9.091251v-20.530574z" fill="#0C2F3E" p-id="1629"></path><path d="M386.528692 220.899341s73.211665 167.254939 253.892757 118.728128c25.9492-14.028222 53.162747-173.636877-93.260584-204.28222-146.42333-30.645343-180.681091 30.645343-160.632173 85.554092z" fill="#3B260F" p-id="1630"></path><path d="M322.408278 375.450611S347.213547 256.662277 412.176858 210.724365c-5.900282-38.291627 0-82.242709 0-82.242709S285.802446 168.579492 322.408278 375.450611z" fill="#3B260F" p-id="1631"></path><path d="M551.074318 134.020696c-22.517404-4.696143-42.385701-7.224835-59.84572-7.947319v199.586077c38.532455 19.928504 89.046096 29.862653 153.106303 12.703669 26.009407-14.028222 53.162747-173.697084-93.260583-204.342427z" fill="#2C160A" p-id="1632"></path></svg>